<svg xmlns="http://www.w3.org/2000/svg" version="1.1" xmlns:xlink="http://www.w3.org/1999/xlink" xmlns:svgjs="http://svgjs.com/svgjs" width="1440" height="1000" preserveAspectRatio="none" viewBox="0 0 1440 1000"><g mask="url(&quot;#SvgjsMask1008&quot;)" fill="none"><rect width="1440" height="1000" x="0" y="0" fill="#0e2a47"></rect><path d="M0,639.673C124.408,672.136,281.447,670.839,373.31,580.881C466.721,489.406,396.432,324.636,445.469,203.439C491.119,90.613,653.067,28.632,645.912,-92.868C638.855,-212.695,484.974,-261.74,412.441,-357.382C332.861,-462.316,316.99,-620.567,199.938,-680.925C79.801,-742.873,-75.041,-729.522,-197.249,-671.768C-313.72,-616.726,-353.896,-477.107,-437.938,-379.475C-521.615,-282.266,-681.274,-227.18,-690.097,-99.221C-699.028,30.312,-561.887,118.739,-479.192,218.84C-416.571,294.641,-339.962,349.157,-266.085,414.037C-176.9,492.36,-114.849,609.704,0,639.673" fill="#0b2239"></path><path d="M1440 1384.598C1518.512 1380.785 1598.737 1391.397 1669.373 1356.911 1744.766 1320.1019999999999 1821.224 1265.715 1847.024 1185.881 1872.3609999999999 1107.48 1813.396 1029.554 1801.5140000000001 948.022 1789.663 866.703 1828.542 771.971 1777.338 707.6949999999999 1726.1390000000001 643.4259999999999 1623.839 663.267 1548.514 630.4359999999999 1458.235 591.087 1386.518 468.30100000000004 1292.066 496.184 1197.568 524.081 1196.726 661.7909999999999 1149.455 748.241 1113.488 814.019 1057.219 869.23 1047.444 943.559 1037.726 1017.455 1071.667 1086.689 1095.666 1157.252 1122.413 1235.895 1126.529 1334.136 1195.85 1379.905 1265.182 1425.682 1357.017 1388.628 1440 1384.598" fill="#113255"></path></g><defs><mask id="SvgjsMask1008"><rect width="1440" height="1000" fill="#ffffff"></rect></mask></defs></svg>